<?xml version="1.0" encoding="iso-8859-1"?>
<!-- Generator: Adobe Illustrator 19.0.0, SVG Export Plug-In . SVG Version: 6.00 Build 0)  -->
<svg version="1.1" id="Capa_1" xmlns="http://www.w3.org/2000/svg" xmlns:xlink="http://www.w3.org/1999/xlink" x="0px" y="0px"
	 viewBox="0 0 512.001 512.001" style="enable-background:new 0 0 512.001 512.001;" xml:space="preserve">
<g>
	<g>
		<path d="M509.063,376.042l-88.022-88.023c21.761-27.061,34.81-61.43,34.81-98.856c0-87.199-70.684-157.897-157.897-157.897
			c-87.219,0-157.903,70.698-157.903,157.897c0,48.488,21.868,91.844,56.263,120.811l-17.425,24.886l-38.43-32.95
			c-2.395-2.055-5.595-2.857-8.679-2.181c-3.078,0.67-5.655,2.731-6.973,5.601l-34.12,73.917l-29.972-29.973
			c-2.442-2.442-5.948-3.459-9.321-2.69c-3.373,0.77-6.096,3.192-7.241,6.451l-24.077,68.208V35.175
			c0-5.541-4.497-10.038-10.038-10.038S0,29.635,0,35.175v441.651c0,2.643,1.07,5.226,2.938,7.1
			c1.867,1.873,4.477,2.938,7.113,2.938h441.651c5.541,0,10.038-4.497,10.038-10.038s-4.497-10.038-10.038-10.038h-70.182v-23.421
			c0-5.541-4.497-10.038-10.038-10.038s-10.038,4.497-10.038,10.038v23.421H261.069v-23.421c0-5.541-4.497-10.038-10.038-10.038
			c-5.541,0-10.038,4.497-10.038,10.038v23.421H140.618v-23.421c0-5.541-4.497-10.038-10.038-10.038s-10.038,4.497-10.038,10.038
			v23.421H25.295l32.488-92.051l28.888,28.881c2.329,2.329,5.621,3.366,8.859,2.784c3.232-0.576,5.976-2.69,7.348-5.681
			l34.59-74.927l36.758,31.504c2.147,1.84,4.979,2.69,7.789,2.342c2.81-0.348,5.34-1.881,6.966-4.202l23.488-33.545
			c24.646,15.899,53.968,25.168,85.479,25.168c42.546,0,81.13-16.857,109.523-44.211l87.394,87.394
			c3.921,3.921,10.272,3.921,14.193,0C512.978,386.32,512.985,379.963,509.063,376.042z M297.96,326.986
			c-27.188,0-52.496-8.024-73.876-21.667l106.505-152.095l9.482,68.73c0.756,5.494,5.822,9.328,11.316,8.572
			c5.487-0.756,9.334-5.828,8.572-11.316l-11.971-86.765v0.007c-0.516-3.848-2.436-7.442-5.293-9.931
			c-2.851-2.509-6.611-3.928-10.459-3.915c-1.365,0-2.744,0.174-4.082,0.516l-84.817,21.694c-5.374,1.372-8.612,6.839-7.241,12.213
			c1.372,5.366,6.845,8.612,12.219,7.234h-0.013l64.381-16.461L207.977,293.327c-29.243-25.288-47.845-62.56-47.845-104.162
			c0-75.991,61.832-137.822,137.829-137.822s137.822,61.83,137.822,137.82C435.776,265.162,373.951,326.986,297.96,326.986z"/>
	</g>
</g>
<g>
</g>
<g>
</g>
<g>
</g>
<g>
</g>
<g>
</g>
<g>
</g>
<g>
</g>
<g>
</g>
<g>
</g>
<g>
</g>
<g>
</g>
<g>
</g>
<g>
</g>
<g>
</g>
<g>
</g>
</svg>
