<?xml version="1.0" encoding="iso-8859-1"?>
<!-- Generator: Adobe Illustrator 19.0.0, SVG Export Plug-In . SVG Version: 6.00 Build 0)  -->
<svg version="1.1" id="Capa_1" xmlns="http://www.w3.org/2000/svg" xmlns:xlink="http://www.w3.org/1999/xlink" x="0px" y="0px"
	 viewBox="0 0 512.001 512.001" style="enable-background:new 0 0 512.001 512.001;" xml:space="preserve">
<g>
	<g>
		<path d="M325.029,56.335l-0.683-0.687c-3.905-3.904-10.237-3.904-14.143,0c-3.905,3.905-3.905,10.237,0,14.143l0.621,0.622
			c1.955,1.974,4.528,2.961,7.103,2.961c2.544,0,5.089-0.965,7.039-2.897C328.889,66.589,328.917,60.258,325.029,56.335z"/>
	</g>
</g>
<g>
	<g>
		<path d="M498.032,430.582l-144.281-144.28c13.948-23.726,22.711-50.371,25.369-78.024c4.147-43.14-6.631-86.715-30.347-122.7
			c-3.04-4.612-9.242-5.887-13.853-2.847c-4.611,3.039-5.886,9.241-2.847,13.853c44.138,66.97,34.94,156.809-21.87,213.618
			c-32.108,32.109-74.799,49.793-120.206,49.793c-45.407,0-88.097-17.684-120.206-49.793C37.683,278.092,20,235.403,20,189.997
			c0-45.407,17.684-88.097,49.792-120.206C126.4,13.182,216.033,3.848,282.918,47.599c4.623,3.023,10.82,1.727,13.843-2.896
			c3.023-4.621,1.727-10.819-2.895-13.843C257.903,7.337,214.411-3.301,171.401,0.905C127.795,5.171,86.686,24.612,55.65,55.648
			C19.764,91.536,0,139.248,0,189.997c0,50.748,19.764,98.46,55.65,134.348c35.887,35.887,83.6,55.65,134.349,55.65
			c34.441,0,67.479-9.113,96.376-26.181l144.212,144.213c9.008,9.008,20.984,13.969,33.722,13.969s24.715-4.961,33.722-13.969
			c9.008-9.008,13.969-20.983,13.969-33.722C512.001,451.564,507.039,439.589,498.032,430.582z M303.358,342.511
			c7.359-5.494,14.376-11.555,20.989-18.168c6.58-6.58,12.633-13.617,18.136-21.029l29.28,29.281l-39.16,39.16L303.358,342.511z
			 M483.89,483.884c-5.23,5.23-12.184,8.111-19.581,8.111c-7.397,0-14.351-2.881-19.581-8.111l-97.985-97.986l39.161-39.16
			l97.985,97.985c5.23,5.23,8.111,12.185,8.111,19.581S489.119,478.655,483.89,483.884z"/>
	</g>
</g>
<g>
	<g>
		<path d="M299.07,189.996c1.299-1.655,2.555-3.313,3.757-4.973c18.948-26.166,23.76-50.312,13.552-67.993
			c-10.208-17.682-33.526-25.589-65.659-22.262c-2.039,0.211-4.106,0.476-6.188,0.773c-0.784-1.952-1.588-3.875-2.425-5.746
			c-13.187-29.49-31.692-45.731-52.108-45.731s-38.921,16.241-52.108,45.731c-0.837,1.871-1.641,3.793-2.425,5.746
			c-2.083-0.297-4.15-0.562-6.188-0.773c-32.134-3.324-55.451,4.581-65.659,22.262c-10.208,17.681-5.396,41.827,13.55,67.993
			c1.202,1.66,2.458,3.318,3.757,4.973c-1.299,1.655-2.555,3.313-3.757,4.973c-18.946,26.166-23.759,50.312-13.55,67.993
			c8.682,15.038,26.848,23.005,51.853,23.005c4.395,0,9.002-0.246,13.805-0.743c2.039-0.211,4.105-0.476,6.188-0.773
			c0.784,1.953,1.588,3.875,2.425,5.747c13.187,29.49,31.692,45.73,52.108,45.73c20.416,0,38.921-16.241,52.108-45.73
			c0.837-1.871,1.641-3.794,2.425-5.747c2.083,0.297,4.15,0.562,6.188,0.773c4.805,0.497,9.409,0.743,13.805,0.743
			c25.004-0.001,43.172-7.968,51.853-23.005c10.208-17.681,5.396-41.827-13.55-67.993
			C301.625,193.309,300.369,191.651,299.07,189.996z M127.218,265.331c-23.474,2.429-40.339-2.079-46.28-12.368
			c-5.94-10.289-1.41-27.151,12.429-46.264c0.331-0.457,0.69-0.912,1.029-1.369c8.081,8.299,17.27,16.395,27.337,24.095
			c1.636,12.563,4.057,24.554,7.203,35.696C128.365,265.188,127.785,265.272,127.218,265.331z M119.446,201.645
			c-4.288-3.828-8.314-7.719-12.061-11.649c3.746-3.93,7.773-7.821,12.061-11.649c-0.141,3.858-0.23,7.739-0.23,11.649
			C119.216,193.907,119.304,197.787,119.446,201.645z M121.733,150.569c-10.067,7.7-19.256,15.795-27.336,24.095
			c-0.339-0.457-0.699-0.913-1.029-1.369c-13.839-19.112-18.37-35.975-12.429-46.264c4.885-8.461,17.158-13.013,34.416-13.013
			c3.729,0,7.693,0.213,11.863,0.645c0.567,0.059,1.147,0.143,1.718,0.209C125.789,126.014,123.368,138.005,121.733,150.569z
			 M235.365,134.707c-3.267-2.05-6.592-4.056-9.976-6.01c-3.387-1.955-6.792-3.819-10.204-5.625
			c5.462-1.8,10.848-3.343,16.127-4.623C232.817,123.573,234.176,129.001,235.365,134.707z M189.998,64.064
			c12.072,0,24.835,13.067,34.547,35.483c-11.233,2.848-22.839,6.751-34.547,11.621c-11.709-4.87-23.314-8.773-34.547-11.621
			C165.163,77.131,177.927,64.064,189.998,64.064z M148.684,118.449c5.279,1.28,10.665,2.822,16.127,4.623
			c-3.412,1.806-6.817,3.67-10.204,5.625c-3.384,1.954-6.709,3.96-9.976,6.01C145.82,129.001,147.179,123.573,148.684,118.449z
			 M144.631,245.286c3.268,2.05,6.593,4.056,9.976,6.01c3.387,1.955,6.792,3.819,10.204,5.625c-5.462,1.8-10.848,3.343-16.127,4.623
			C147.179,256.42,145.82,250.992,144.631,245.286z M189.998,315.928c-12.072,0-24.836-13.067-34.547-35.483
			c11.234-2.848,22.839-6.75,34.547-11.621c11.709,4.87,23.314,8.773,34.547,11.621
			C214.833,302.861,202.069,315.928,189.998,315.928z M231.312,261.544c-5.279-1.28-10.665-2.823-16.127-4.623
			c3.412-1.806,6.817-3.67,10.204-5.625c3.384-1.954,6.709-3.961,9.976-6.01C234.176,250.993,232.817,256.421,231.312,261.544z
			 M239.411,218.497c-7.561,5.417-15.59,10.61-24.022,15.479c-8.424,4.864-16.928,9.216-25.392,13.053
			c-8.464-3.837-16.968-8.19-25.392-13.053c-8.432-4.868-16.46-10.062-24.022-15.479c-0.887-9.053-1.37-18.573-1.37-28.501
			c0-9.928,0.483-19.449,1.37-28.501c7.561-5.417,15.59-10.61,24.022-15.479c8.424-4.864,16.928-9.216,25.392-13.053
			c8.464,3.837,16.968,8.19,25.392,13.053c8.432,4.868,16.46,10.062,24.022,15.479c0.887,9.053,1.37,18.574,1.37,28.501
			C240.781,199.925,240.298,209.445,239.411,218.497z M252.779,114.662c4.172-0.432,8.133-0.645,11.863-0.645
			c17.257,0,29.532,4.553,34.416,13.013c5.941,10.289,1.411,27.151-12.429,46.264c-0.331,0.457-0.69,0.912-1.029,1.369
			c-8.081-8.299-17.27-16.395-27.337-24.095c-1.636-12.563-4.057-24.554-7.203-35.697
			C251.632,114.805,252.213,114.72,252.779,114.662z M260.55,178.348c4.288,3.828,8.314,7.719,12.061,11.649
			c-3.746,3.93-7.773,7.821-12.061,11.649c0.141-3.858,0.23-7.738,0.23-11.648C260.78,186.086,260.692,182.206,260.55,178.348z
			 M299.058,252.963c-5.94,10.289-22.808,14.797-46.28,12.368c-0.567-0.059-1.147-0.143-1.718-0.209
			c3.147-11.143,5.568-23.135,7.203-35.696c10.067-7.7,19.256-15.795,27.337-24.095c0.34,0.456,0.7,0.911,1.03,1.368
			C300.468,225.811,304.999,242.674,299.058,252.963z"/>
	</g>
</g>
<g>
	<g>
		<path d="M256.005,451.93h-91.665c-5.523,0-10,4.478-10,10s4.477,10,10,10h91.665c5.523,0,10-4.478,10-10
			S261.527,451.93,256.005,451.93z"/>
	</g>
</g>
<g>
	<g>
		<path d="M106.698,451.93H10c-5.523,0-10,4.478-10,10s4.477,10,10,10h96.698c5.523,0,10-4.478,10-10S112.221,451.93,106.698,451.93
			z"/>
	</g>
</g>
<g>
	<g>
		<path d="M215.774,411.931H10c-5.523,0-10,4.478-10,10s4.477,10,10,10h205.774c5.523,0,10-4.478,10-10
			S221.297,411.931,215.774,411.931z"/>
	</g>
</g>
<g>
	<g>
		<path d="M75.176,372.034H10c-5.523,0-10,4.478-10,10s4.477,10,10,10h65.176c5.523,0,10-4.478,10-10S80.699,372.034,75.176,372.034
			z"/>
	</g>
</g>
<g>
	<g>
		<path d="M263.074,414.864c-1.86-1.87-4.44-2.931-7.07-2.931s-5.21,1.061-7.07,2.931c-1.86,1.859-2.93,4.43-2.93,7.069
			c0,2.63,1.07,5.21,2.93,7.07c1.86,1.86,4.44,2.93,7.07,2.93s5.21-1.069,7.07-2.93s2.93-4.44,2.93-7.07
			S264.934,416.723,263.074,414.864z"/>
	</g>
</g>
<g>
	<g>
		<path d="M462.667,54h-54.999c-5.523,0-10,4.478-10,10s4.477,10,10,10h54.999c5.523,0,10-4.478,10-10S468.19,54,462.667,54z"/>
	</g>
</g>
<g>
	<g>
		<path d="M509.07,56.93C507.21,55.07,504.63,54,502,54s-5.21,1.069-7.07,2.93C493.07,58.79,492,61.37,492,64s1.07,5.21,2.93,7.069
			C496.79,72.929,499.369,74,502,74c2.63,0,5.21-1.07,7.07-2.931C510.93,69.21,512,66.63,512,64S510.93,58.79,509.07,56.93z"/>
	</g>
</g>
<g>
	<g>
		<path d="M501.999,99.499h-94.331c-5.523,0-10,4.478-10,10s4.477,10,10,10h94.331c5.523,0,10-4.478,10-10
			S507.522,99.499,501.999,99.499z"/>
	</g>
</g>
<g>
</g>
<g>
</g>
<g>
</g>
<g>
</g>
<g>
</g>
<g>
</g>
<g>
</g>
<g>
</g>
<g>
</g>
<g>
</g>
<g>
</g>
<g>
</g>
<g>
</g>
<g>
</g>
<g>
</g>
</svg>
